<?xml version="1.0" encoding="UTF-8"?>
<svg version="1.1" xmlns="http://www.w3.org/2000/svg" width="124" height="124">
<path d="M0 0 C40.92 0 81.84 0 124 0 C124 40.92 124 81.84 124 124 C83.08 124 42.16 124 0 124 C0 83.08 0 42.16 0 0 Z " fill="#3644D1" transform="translate(0,0)"/>
<path d="M0 0 C8.04406121 4.91061876 14.91778209 11.88039698 17.55322266 21.11401367 C19.78779291 31.34183285 18.9020543 43.9821421 14.015625 53.23046875 C8.73116058 61.19369393 1.94868107 65.25278339 -6.984375 68.23046875 C-18.19289196 69.46558693 -28.67114347 69.21900218 -37.984375 62.23046875 C-44.87691952 56.3518688 -49.19466524 49.35195854 -50.203125 40.2578125 C-51.0847697 28.28948569 -49.53320526 17.60681137 -41.75390625 8.015625 C-31.5055279 -2.32324676 -13.63189571 -5.7157358 0 0 Z " fill="#FCFCFE" transform="translate(65.984375,28.76953125)"/>
<path d="M0 0 C4.50911167 2.17403598 6.85819183 4.49093016 9 9 C11.26367639 15.95044299 11.4183389 26.09027587 8.25 32.75 C5.44380904 36.80338694 3.62491645 38.45836118 -1 40 C-7.12093081 40.50171564 -10.1167095 40.08833623 -15 36 C-20.48797714 30.31602368 -20.44508046 22.62716667 -20.31640625 15.1640625 C-19.74191706 9.41917056 -17.54084023 5.86768513 -13.9375 1.5 C-9.36363677 -0.83558973 -5.02742508 -0.73085915 0 0 Z " fill="#3242D2" transform="translate(55,42)"/>
<path d="M0 0 C1.89510699 -0.08160748 3.79124504 -0.13946459 5.6875 -0.1875 C6.74324219 -0.22230469 7.79898438 -0.25710937 8.88671875 -0.29296875 C12.44101094 0.0415004 14.19709749 0.81560137 17 3 C19.76245845 6.56713853 19.26118878 10.81512739 19.1875 15.125 C19.18105469 15.90601074 19.17460938 16.68702148 19.16796875 17.49169922 C19.05915628 26.00797508 18.56242278 34.50339867 18 43 C7.22506602 43.56489945 7.22506602 43.56489945 3 40 C0.62802953 36.44204429 0.55517101 33.69043891 0.375 29.5625 C0.33705322 28.829104 0.29910645 28.09570801 0.26000977 27.34008789 C-0.1604693 18.23161501 -0.08483705 9.1152696 0 0 Z " fill="#F9FAFD" transform="translate(88,27)"/>
<path d="M0 0 C3 2.4375 3 2.4375 5 5 C5.33 5.33 5.66 5.66 6 6 C6.66298348 10.49881649 6.76319636 14.68561442 4.0625 18.5 C0.61076209 21.31774523 -1.41119984 22.02706216 -5.78125 22.23828125 C-9.35517431 21.85446191 -11.37644628 20.36759726 -14 18 C-16.59107284 14.58449489 -16.50288306 11.16674536 -16 7 C-12.04497855 0.41319849 -7.37346722 -1.18433929 0 0 Z " fill="#FAFAFD" transform="translate(102,75)"/>
<path d="M0 0 C1.09570312 0.00902344 2.19140625 0.01804688 3.3203125 0.02734375 C4.16335937 0.03894531 5.00640625 0.05054688 5.875 0.0625 C6.2256375 4.53312807 6.41241585 7.9876683 4.375 12.0625 C0.98581996 14.77384403 -1.82635906 15.33542958 -6.125 15.0625 C-9.0625 14.0625 -9.0625 14.0625 -11.125 12.0625 C-12.1875 8.625 -12.1875 8.625 -12.125 5.0625 C-8.51918787 0.33764272 -5.72270448 -0.06087983 0 0 Z " fill="#F4F4FB" transform="translate(54.125,62.9375)"/>
</svg>


